<svg xmlns="http://www.w3.org/2000/svg" viewBox="0 0 286.58826 493.5">
  <title>ampoule2</title>
  <g id="Calque_2" data-name="Calque 2">
    <g id="Calque_1-2" data-name="Calque 1">
      <path fill="#1E555C" d="M70.70215,179.6665a9.90181,9.90181,0,0,0-3.00293,4.72364,5.57321,5.57321,0,0,0,1.793,6.34814c1.64746,1.126,3.70459.78613,5.79345-.95459a13.18991,13.18991,0,0,1,2.481-1.62988c-1.811-3.87549-3.50488-7.49951-5.03515-10.77295A17.13493,17.13493,0,0,1,70.70215,179.6665Z"/>
      <path fill="#78D6C6" d="M89.646,194.146a10.0831,10.0831,0,0,0-3.041-1.25049c1.876,4.01465,3.835,8.209,5.835,12.49267a14.16842,14.16842,0,0,1,.38477-4.145A6.4273,6.4273,0,0,0,89.646,194.146Z"/>
      <path fill="#1E555C" d="M157.97754,154.80078c-.74524-.66254-1.41931-1.31384-2.03479-1.95526a10.10874,10.10874,0,0,1-4.516-4.0047,12.166,12.166,0,0,1-.83777-1.64075c-1.43323.17224-2.918.34766-4.50208.53186-3.3247.38721-6.93359.80762-10.64013,1.291.11523.602.22021,1.22119.31494,1.86133,1.65723,11.186-1.9375,20.44385-10.12207,26.06787-8.38184,5.76025-20.41455,6.585-28.6084,1.96094-5.51172-3.10987-8.35156-8.145-7.99658-14.17774.7456-12.68066,19.03222-17.73291,38.65381-20.69629q-3.616-7.91088-12.00782-7.84179c-10.11474.11474-21.40722,9.00537-21.90966,13.02783-1.418,11.33984-6.125,13.38965-12.13184,14.8916-.91846.22949-1.73779.37842-2.46143.50976-2.53076.46045-3.11914.56788-3.74658,4.36182,2.249,4.81006,5.0791,10.86426,8.2461,17.64111q.3435-.01538.68847-.01562a15.97668,15.97668,0,0,1,8.47022,2.45019c4.915,3.085,7.14111,8.30958,5.81006,13.63428-1.0503,4.20117,1.6416,9.34619,4.49414,10.269,2.355.75927,5.00488-1.9209,7.10351-7.16993,2.90576-7.26269,6.957-11.71435,12.042-13.23047,6.49219-1.93652,11.99707,1.84327,12.22852,2.00489a2.96653,2.96653,0,0,1,.25537.1997c3.29639,2.87256,9.12988,6.23584,11.04834,4.79932,2.34912-1.76221,2.05029-7.12451,1.47754-9.93506-1.35889-2.00146-5.02393-8.46826-1.01465-15.1499,3.67725-6.12891,12.25586-7.34082,15.86719-7.57666a6.61255,6.61255,0,0,0,.94238-3.68018C162.97412,160.54883,161.25391,157.71289,157.97754,154.80078Z"/>
      <path fill="#1E555C" d="M70.041,157.46387c.04589.09765.74609,1.59472,1.958,4.18554,1.43018-1.7163,3.40284-2.43457,6.10547-2.92578.66406-.12109,1.35059-.2456,2.07959-.42822,4.26416-1.06592,6.6128-1.65283,7.63281-9.81445.94092-7.52491,15.12256-18.13916,27.79541-18.28321,5.35938-.06347,13.96436,1.74366,18.21729,12.979,3.90967-.51319,7.80713-.9668,11.56348-1.4043q2.05764-.23968,4.1062-.48425a16.25272,16.25272,0,0,1,4.13452-10.43469,23.79589,23.79589,0,0,1,3.39661-3.04187,6.446,6.446,0,0,0-1.15-4.53772c-1.80029-2.42676-5.24707-2.87061-9.708-1.24854-9.709,3.52979-15.38965.53906-17.91162-1.55713a13.78142,13.78142,0,0,1-4.602-12.87305c.42285-2.53857-2.148-6.12353-4.91211-6.8496-2.76172-.72559-4.44824,2.1333-5.36865,4.6621-2.269,6.24024-5.28857,9.97608-9.231,11.42188-5.42724,1.99072-11.14551-.84863-16.07666-3.666-3.3501-1.91357-6.23974-2.43505-7.73193-1.39794-1.78613,1.24414-2.313,5.22656-1.40869,10.65283,1.88818,11.32666-.07373,14.58252-4.89356,17.23681A8.95215,8.95215,0,0,0,71.915,141.0918c-2.25781,2.25927-5.62549,2.12158-8.59619,1.998-2.17627-.08838-4.64453-.1914-5.61963.74512-.79639.76465-.96387,2.479-.96387,3.78272,0,2.58105.7002,4.48,2.14063,5.80615,2.95605,2.72168,8.13476,2.32666,8.188,2.32275.083-.00683.16651-.01025.249-.01025A3.01484,3.01484,0,0,1,70.041,157.46387Z"/>
      <path fill="#1E555C" d="M95.02393,165.08789A8.93676,8.93676,0,0,0,99.98,173.6875c6.20166,3.49951,15.77344,2.7793,22.26172-1.68018,4.38232-3.01123,9.25537-8.96777,7.58447-20.24414q-.14575-.98657-.33105-1.91259C112.55127,152.37158,95.52832,156.51367,95.02393,165.08789Z"/>
      <path fill="#1E555C" d="M208.999,131.83643a25.59492,25.59492,0,0,1-.36377,5.15673c-1.86181,11.17334-7.88134,14.87647-11.30371,16.08936a14.589,14.589,0,0,1-14.35351-2.75537,10.94472,10.94472,0,0,1-3.70069-10.772c1.57422-7.0835,12.14161-10.76709,22.30957-12.67872a8.30141,8.30141,0,0,0-1.91845-2.17578c-3.60987-2.89062-9.33155-2.84814-13.11621-1.311-2.23633.90771-3.67188,2.25342-3.83985,3.6001-1.22949,9.83545-6.0498,12.65869-9.56933,14.71972-.55713.32666-1.10547.64551-1.626.99268a14.76185,14.76185,0,0,1-3.97913,1.69043,13.62678,13.62678,0,0,1,5.71741,3.03662c5.24024,4.57031,8.28027,13.22949,7.22852,20.58935a3.74323,3.74323,0,0,0,2.45263,4.29249c.32325.06787.72461.15527,1.11914-1.22364,3.1709-11.09814,8.92237-14.18017,17.1753-15.55566a13.05089,13.05089,0,0,1,5.615.28247c4.08917-10.92413,7.39374-19.76978,9.23852-24.71069C213.79346,131.27637,211.39893,131.521,208.999,131.83643Z"/>
      <path fill="#78D6C6" d="M143.29413,0A143.2941,143.2941,0,0,0,0,143.29413c0,1.77942.04382,3.54834.10809,5.312,0,52.87048,16.56848,81.77625,40.03894,115.12915,23.47065,33.35291,16.05884,42,19.76471,65.47058s18.52942,32.11762,18.52942,32.11762v9.88238l3.70587,3.70587v9.88239l6.17652,6.17645v7.41174l-3.64636,1.36737a3.93546,3.93546,0,0,0-1.17933,6.67286L87.08826,409.5v9.88232h-.09064a3.9354,3.9354,0,0,0-2.988,6.49653l1.84333,2.15057v4.94116l-3.08936,2.05957a3.93537,3.93537,0,0,0-.37817,6.26239l4.70282,4.031L85.853,451.5h-.34314a3.36276,3.36276,0,0,0-3.3628,3.36273v2.81372l38.29413,28.41175v4.94122L124.147,493.5h38.29413l3.70587-2.47058V486.0882l38.29413-28.41175v-2.81372A3.36274,3.36274,0,0,0,201.07843,451.5h-.34314L199.5,445.32349l5.40259-4.6308a3.23716,3.23716,0,0,0-.311-5.15131l-3.85626-2.5708v-4.94116l2.8313-3.30322a3.23716,3.23716,0,0,0-2.45783-5.34388H199.5V409.5l4.48755-3.8465a3.23716,3.23716,0,0,0-.97-5.48889l-4.75281-1.78229v-7.41174l6.17645-6.17645v-9.88239l3.70587-3.70587v-9.88238s14.82355-8.647,18.52942-32.11762-3.70587-32.11767,19.76471-65.47058,40.03894-62.25867,40.03894-115.12915c.06433-1.76367.10816-3.53259.10816-5.312A143.29413,143.29413,0,0,0,143.29413,0Zm53.11749,368.64746H90.17627a3,3,0,1,1,0-6H196.41162a3,3,0,0,1,0,6Zm42.94043-236.334a9.2606,9.2606,0,0,1-9.606,4.93506,3.48291,3.48291,0,0,0-3.4541,1.36425c-1.95312,2.33985-2.62207,6.75537-1.523,10.05274,1.39942,4.19775,5.11719,15.34961-4.72754,20.271-4.49347,2.24921-8.33252-.05407-11.0025-1.87-13.35864,35.65448-32.14618,85.60333-38.25336,100.87152-9.53222,23.82959-7.22412,87.07519-7.1997,87.71142a2.99914,2.99914,0,0,1-2.88233,3.1128c-.03906.00146-.07861.00244-.11718.00244a2.99939,2.99939,0,0,1-2.99561-2.88477c-.10205-2.64892-2.38037-65.16015,7.62354-90.17041C171.3385,250.39966,190.28,200.036,203.6416,164.37085a4.1538,4.1538,0,0,0-.93115.03882c-5.91455.98535-8.06592,2.37646-10.00147,9.15039-1.57617,5.51611-5.61914,7.77783-9.519,7.77832a10.23282,10.23282,0,0,1-2.13037-.2251,12.652,12.652,0,0,1-9.48486-14.36719c.6084-4.26123-1.33057-10.001-4.23487-12.53369a4.03617,4.03617,0,0,0-2.68774-1.173c2.83472,3.26562,4.33783,6.65246,4.43921,10.10663a12.449,12.449,0,0,1-3.29395,8.82861,2.9999,2.9999,0,0,1-2.12109.87842c-2.62158.00927-9.94482.876-12.25049,4.71972-2.603,4.33789.96875,8.89014,1.00537,8.93555a3.00552,3.00552,0,0,1,.56787,1.14649c.30225,1.20947,2.76953,11.95214-3.58105,16.71582-6.39111,4.7915-16.13672-2.96192-18.43555-4.94141a9.16557,9.16557,0,0,0-7.03564-1.09619c-3.17237.97217-5.98438,4.32422-8.13184,9.69287-4.90576,12.26416-11.78857,11.53223-14.52051,10.65039a10.47453,10.47453,0,0,1-3.63379-2.10547c7.21827,15.46729,14.49268,31.07422,19.94288,42.813,16.22265,34.94043,10.3999,91.82324,10.144,94.22754a3,3,0,0,1-5.96631-.63428c.061-.57275,5.89795-57.64355-9.62012-91.06689-8.54785-18.41114-21.58838-46.34864-31.85351-68.31934a7.29067,7.29067,0,0,0-1.18116.80225c-4.1455,3.45214-9.13281,3.95166-13.01708,1.30127a11.52677,11.52677,0,0,1-4.10254-13.20166,15.734,15.734,0,0,1,4.49951-7.11524c1.30029-1.272,2.17773-2.12988,2.71972-5.49414-1.7124-3.66162-3.0249-6.46728-3.80566-8.13672-2.65967-.11767-7.21045-.80566-10.57178-3.87549-2.72949-2.49218-4.11328-5.94189-4.11328-10.25341,0-3.644.919-6.29737,2.80957-8.11133,2.82129-2.7085,6.814-2.54444,10.02051-2.41114,1.2749.05127,3.6499.14942,4.10889-.24755a14.36791,14.36791,0,0,1,3.46777-2.44825c2.042-1.12451,3.39062-1.86718,1.86963-10.99462-1.37256-8.23291-.061-13.80518,3.89746-16.5625,3.543-2.46875,8.564-2.07325,14.1377,1.11132,4.03466,2.30616,8.16357,4.29444,11.03466,3.24268,2.14942-.78809,4.05274-3.42529,5.65772-7.83936,3.60547-9.916,10.50488-8.94629,12.53222-8.41455,5.80567,1.52588,10.24073,8.02637,9.30518,13.63916a7.76764,7.76764,0,0,0,2.51953,7.27295c2.647,2.2002,6.91748,2.38916,12.02539.53223,7.26258-2.64075,11.82343-.88318,14.41809,1.12756-.40417-1.17914-.89782-2.514-1.51184-4.049a4.50046,4.50046,0,0,1-.23437-.78857c-.1543-.772-1.377-7.66553,3.18261-11.92139,3.10254-2.896,7.65577-3.55273,13.53174-1.94971,11.61524,3.16846,15.71729.28272,19.61426-6.53808,4.11133-7.19483,9.70166-5.94483,11.31592-5.3916,5.561,1.9082,9.22314,9.49267,8.16357,16.90722-.37842,2.65039,1.062,5.76905,3.66944,7.94532a10.55367,10.55367,0,0,0,10.21777,1.97314c4.648-1.54834,8.9248-.48828,11.73389,2.90967C241.5415,120.626,242.0376,127.523,239.35205,132.31348Z"/>
      <path fill="#1E555C" d="M229.33447,122.23975a19.558,19.558,0,0,1-18.83008-3.60157c-5.02392-4.19287-7.63427-10.37255-6.812-16.12744a8.42525,8.42525,0,0,0-1.91162-6.9458,5.5882,5.5882,0,0,0-.84424,1.168c-6.543,11.45068-15.45361,14.66846-29.79687,10.75537-3.16748-.86328-4.64844-.50293-5.02246-.15381-.56836.53028-.667,2.23731-.54834,3.252,5.83984,14.77832,4.08789,19.14843-2.30274,23.80859a18.488,18.488,0,0,0-2.97216,2.51123,6.88967,6.88967,0,0,0-1.59406,3.17383c4.54865-.69269,8.1225-1.45905,9.48907-2.37012.61573-.41064,1.26221-.7915,1.92188-1.17773,3.10449-1.81787,5.78516-3.38819,6.64746-10.28662.44824-3.58545,3.19531-6.65284,7.53711-8.415,5.23926-2.12793,13.457-2.34961,19.12305,2.18652a14.345,14.345,0,0,1,4.37451,5.88184c5.667-.73584,10.51221-.97217,12.60351-1.04395a2.99966,2.99966,0,0,1,2.91456,4.04639c-.02033.05456-.1377.36914-.34095.91388a12.39309,12.39309,0,0,1,8.04846-1.47589.63963.63963,0,0,0,.16846.0083c.61719-.36524,1.417-3.27246.45362-5.41016C231.31934,122.2251,231.064,121.66357,229.33447,122.23975Z"/>
      <path fill="#1E555C" d="M186.9541,145.834a8.62093,8.62093,0,0,0,8.37256,1.59327c3.76074-1.33252,6.38525-5.38868,7.39063-11.42041a20.60765,20.60765,0,0,0,.29638-3.23145c-9.13183,1.68506-17.06494,4.417-17.8789,8.08154A5.11845,5.11845,0,0,0,186.9541,145.834Z"/>
      <path fill="#1E555C" d="M215.66431,149.368c-1.0492,2.80524-2.181,5.83-3.37836,9.02844.47449.30994.921.615,1.33173.89753a15.64262,15.64262,0,0,0,2.51562,1.53369c1.14258-.58252,2.6499-1.65918.09766-9.31592A18.69968,18.69968,0,0,1,215.66431,149.368Z"/>
    </g>
  </g>
</svg>
