<svg width="40" height="36" viewBox="0 0 40 36" fill="none" xmlns="http://www.w3.org/2000/svg">
<path d="M34 12C32.3333 12 30.9167 11.4167 29.75 10.25C28.5833 9.08333 28 7.66667 28 6C28 4.33333 28.5833 2.91667 29.75 1.75C30.9167 0.583333 32.3333 0 34 0C35.6667 0 37.0833 0.583333 38.25 1.75C39.4167 2.91667 40 4.33333 40 6C40 7.66667 39.4167 9.08333 38.25 10.25C37.0833 11.4167 35.6667 12 34 12ZM4 36C2.9 36 1.958 35.608 1.174 34.824C0.390003 34.04 -0.00132994 33.0987 3.39559e-06 32V8C3.39559e-06 6.9 0.392003 5.958 1.176 5.174C1.96 4.39 2.90134 3.99867 4 4H24.2C24.0667 4.66667 24 5.33333 24 6C24 6.66667 24.0667 7.33333 24.2 8C24.4333 9.06667 24.8167 10.0587 25.35 10.976C25.8833 11.8933 26.5333 12.7013 27.3 13.4L20 18L4 8V12L20 22L30.55 15.4C31.1167 15.6 31.6833 15.75 32.25 15.85C32.8167 15.95 33.4 16 34 16C35.0667 16 36.1167 15.8333 37.15 15.5C38.1833 15.1667 39.1333 14.6667 40 14V32C40 33.1 39.608 34.042 38.824 34.826C38.04 35.61 37.0987 36.0013 36 36H4Z" fill="#78D6C6"/>
</svg>
