<svg width="48" height="45" viewBox="0 0 48 45" fill="none" xmlns="http://www.w3.org/2000/svg">
<path d="M12 5.25C12 2.352 14.352 0 17.25 0H34.008C35.4 0 36.735 0.552 37.719 1.539L46.461 10.281C47.448 11.265 48 12.6 48 13.992V39.75C48 41.1424 47.4468 42.4777 46.4623 43.4623C45.4777 44.4469 44.1424 45 42.75 45H15.75C15.1532 45 14.5809 44.7629 14.159 44.341C13.737 43.919 13.5 43.3467 13.5 42.75C13.5 42.1533 13.737 41.581 14.159 41.159C14.5809 40.7371 15.1532 40.5 15.75 40.5H42.75C42.9489 40.5 43.1397 40.421 43.2803 40.2803C43.421 40.1397 43.5 39.9489 43.5 39.75V18H35.25C33.8576 18 32.5222 17.4469 31.5377 16.4623C30.5531 15.4777 30 14.1424 30 12.75V4.5H17.25C17.0511 4.5 16.8603 4.57902 16.7196 4.71967C16.579 4.86032 16.5 5.05109 16.5 5.25V12.75C16.5 13.3467 16.2629 13.919 15.841 14.341C15.419 14.7629 14.8467 15 14.25 15C13.6532 15 13.0809 14.7629 12.659 14.341C12.237 13.919 12 13.3467 12 12.75V5.25ZM17.16 20.16C17.5818 19.7386 18.1537 19.502 18.75 19.502C19.3462 19.502 19.9181 19.7386 20.34 20.16L26.34 26.16C26.7613 26.5819 26.998 27.1537 26.998 27.75C26.998 28.3463 26.7613 28.9181 26.34 29.34L20.34 35.34C20.065 35.6362 19.7151 35.8527 19.3274 35.9667C18.9397 36.0808 18.5283 36.0881 18.1368 35.988C17.7452 35.8879 17.3879 35.684 17.1024 35.3978C16.817 35.1117 16.6141 34.7538 16.515 34.362C16.4147 33.9709 16.4217 33.56 16.5352 33.1725C16.6487 32.785 16.8645 32.4352 17.16 32.16L21.57 27.75L17.16 23.34C16.7386 22.9181 16.502 22.3463 16.502 21.75C16.502 21.1537 16.7386 20.5819 17.16 20.16ZM9.83997 23.34L5.42997 27.75L9.83997 32.16C10.2372 32.5868 10.4535 33.1509 10.4434 33.7339C10.4334 34.3168 10.1977 34.8732 9.78597 35.286C9.37316 35.6977 8.81682 35.9334 8.23386 35.9435C7.65091 35.9535 7.08676 35.7372 6.65997 35.34L0.659973 29.34C0.238622 28.9181 0.00195312 28.3463 0.00195312 27.75C0.00195312 27.1537 0.238622 26.5819 0.659973 26.16L6.65997 20.16C7.08676 19.7628 7.65091 19.5465 8.23386 19.5565C8.81682 19.5666 9.37316 19.8023 9.78597 20.214C10.1977 20.6268 10.4334 21.1832 10.4434 21.7661C10.4535 22.3491 10.2372 22.9132 9.83997 23.34ZM34.5 4.686V12.75C34.5 13.164 34.836 13.5 35.25 13.5H43.314L43.281 13.461L34.539 4.719L34.5 4.686Z" fill="#78D6C6"/>
</svg>
