<svg width="42" height="42" viewBox="0 0 42 42" fill="none" xmlns="http://www.w3.org/2000/svg">
<path d="M13.4062 25.41L25.4062 13.41C25.6155 13.2007 25.8639 13.0346 26.1374 12.9214C26.4109 12.8081 26.7039 12.7498 26.9999 12.7498C27.2959 12.7498 27.589 12.8081 27.8625 12.9214C28.1359 13.0346 28.3844 13.2007 28.5937 13.41C28.803 13.6193 28.969 13.8677 29.0823 14.1412C29.1955 14.4146 29.2538 14.7077 29.2538 15.0037C29.2538 15.2997 29.1955 15.5928 29.0823 15.8662C28.969 16.1397 28.803 16.3882 28.5937 16.5975L16.5937 28.5975C16.171 29.0201 15.5977 29.2576 14.9999 29.2576C14.4022 29.2576 13.8289 29.0201 13.4062 28.5975C12.9835 28.1748 12.746 27.6015 12.746 27.0037C12.746 26.4059 12.9835 25.8327 13.4062 25.41ZM37.9687 4.03496C35.8568 1.92786 32.9954 0.744507 30.0121 0.744507C27.0289 0.744507 24.1674 1.92786 22.0556 4.03496L16.4081 9.67684C15.9854 10.0995 15.7479 10.6728 15.7479 11.2706C15.7479 11.8684 15.9854 12.4416 16.4081 12.8643C16.8307 13.287 17.404 13.5245 18.0018 13.5245C18.5996 13.5245 19.1729 13.287 19.5956 12.8643L25.2337 7.22809C25.8606 6.60107 26.6048 6.10366 27.424 5.76427C28.2431 5.42489 29.1211 5.25016 30.0077 5.25007C30.8944 5.24999 31.7724 5.42454 32.5915 5.76377C33.4107 6.10299 34.1551 6.60025 34.7821 7.22715C35.4091 7.85405 35.9065 8.59831 36.2459 9.41744C36.5853 10.2366 36.76 11.1145 36.7601 12.0012C36.7602 12.8878 36.5857 13.7658 36.2464 14.585C35.9072 15.4042 35.41 16.1486 34.7831 16.7756L29.1374 22.41C28.7147 22.8327 28.4773 23.4059 28.4773 24.0037C28.4773 24.6015 28.7147 25.1748 29.1374 25.5975C29.5601 26.0202 30.1334 26.2576 30.7312 26.2576C31.329 26.2576 31.9022 26.0202 32.3249 25.5975L37.9649 19.9612C40.0731 17.8481 41.2566 14.9847 41.2555 11.9997C41.2545 9.0148 40.069 6.15226 37.9593 4.04059L37.9687 4.03496ZM22.4099 29.1375L16.7718 34.7775C16.1448 35.4044 15.4004 35.9016 14.5812 36.2408C13.762 36.5801 12.884 36.7546 11.9974 36.7545C11.1107 36.7545 10.2328 36.5797 9.41366 36.2403C8.59453 35.9009 7.85027 35.4035 7.22337 34.7765C5.95729 33.5102 5.24612 31.7928 5.24629 30.0021C5.24647 28.2114 5.95798 26.4942 7.22431 25.2281L12.8606 19.59C13.0699 19.3807 13.2359 19.1322 13.3491 18.8587C13.4624 18.5853 13.5207 18.2922 13.5207 17.9962C13.5207 17.7002 13.4624 17.4071 13.3491 17.1337C13.2359 16.8602 13.0699 16.6118 12.8606 16.4025C12.6513 16.1932 12.4028 16.0271 12.1293 15.9139C11.8559 15.8006 11.5628 15.7423 11.2668 15.7423C10.9708 15.7423 10.6777 15.8006 10.4043 15.9139C10.1308 16.0271 9.88235 16.1932 9.67306 16.4025L4.04056 22.0462C1.93035 24.1567 0.744941 27.019 0.745117 30.0034C0.745293 32.9879 1.93104 35.8501 4.0415 37.9603C6.15196 40.0705 9.01426 41.2559 11.9987 41.2557C14.9832 41.2555 17.8453 40.0698 19.9556 37.9593L25.5918 32.3212C26.0145 31.8985 26.252 31.3252 26.252 30.7275C26.252 30.1297 26.0145 29.5564 25.5918 29.1337C25.1691 28.711 24.5958 28.4736 23.9981 28.4736C23.4003 28.4736 22.827 28.711 22.4043 29.1337L22.4099 29.1375Z" fill="#78D6C6"/>
</svg>
