<svg width="48" height="43" viewBox="0 0 48 43" fill="none" xmlns="http://www.w3.org/2000/svg">
<path d="M24 39C37.2562 39 48 30.2719 48 19.5C48 8.72812 37.2562 0 24 0C10.7437 0 -1.21463e-05 8.72812 -1.21463e-05 19.5C-1.21463e-05 23.7281 1.65936 27.6375 4.47186 30.8344C4.29374 33.1312 3.40311 35.175 2.46561 36.7312C1.94999 37.5938 1.42499 38.2875 1.04061 38.7562C0.843738 38.9906 0.693738 39.1688 0.581238 39.2906C0.524988 39.3469 0.487488 39.3937 0.459363 39.4219L0.431238 39.45C-1.21444e-05 39.8812 -0.121887 40.5188 0.112488 41.0813C0.346863 41.6438 0.890613 42.0094 1.49999 42.0094C4.19061 42.0094 6.89999 41.175 9.14999 40.2C11.2969 39.2625 13.125 38.1469 14.2406 37.3313C17.2219 38.4094 20.5219 39.0094 24 39.0094V39ZM19.0219 13.575C19.6312 13.3688 20.3062 13.5844 20.7 14.1L24 18.4969L27.3 14.1C27.6844 13.5844 28.3594 13.3688 28.9781 13.575C29.5969 13.7812 30 14.3531 30 15V24C30 24.825 29.325 25.5 28.5 25.5C27.675 25.5 27 24.825 27 24V19.5L25.2 21.9C24.9187 22.275 24.4687 22.5 24 22.5C23.5312 22.5 23.0812 22.275 22.8 21.9L21 19.5V24C21 24.825 20.325 25.5 19.5 25.5C18.675 25.5 18 24.825 18 24V15C18 14.3531 18.4125 13.7812 19.0219 13.575ZM35.25 17.1375V17.175C35.2594 17.1844 35.3062 17.25 35.4562 17.3344C35.8219 17.55 36.3562 17.7188 37.1719 17.9719L37.2281 17.9906C37.9219 18.1969 38.85 18.4781 39.5906 18.9469C40.4437 19.4813 41.2219 20.3719 41.2406 21.75C41.2594 23.1562 40.5281 24.1875 39.5719 24.7781C38.6812 25.3312 37.6125 25.5187 36.6937 25.4906C35.55 25.4531 34.4719 25.0781 33.6375 24.7969C33.5062 24.75 33.3844 24.7125 33.2625 24.6656C32.475 24.4031 32.0531 23.55 32.3156 22.7719C32.5781 21.9937 33.4312 21.5625 34.2094 21.825C34.3687 21.8812 34.5187 21.9281 34.6687 21.975C35.5219 22.2656 36.1312 22.4719 36.7875 22.4906C37.2844 22.5094 37.725 22.3969 37.9875 22.2281C38.1 22.1531 38.1562 22.0875 38.1844 22.0406C38.2031 22.0031 38.2406 21.9281 38.2406 21.7875V21.7688C38.2406 21.7031 38.2406 21.6375 37.9875 21.4781C37.6312 21.2531 37.0875 21.075 36.3 20.8312L36.1875 20.7938C35.5125 20.5875 34.6219 20.325 33.9094 19.8937C33.0656 19.3875 32.25 18.5156 32.25 17.1375C32.2406 15.7125 33.0562 14.7281 33.9844 14.175C34.8656 13.6594 35.9062 13.4719 36.7687 13.4813C37.7062 13.5 38.6156 13.6969 39.3844 13.8937C40.1812 14.1094 40.6594 14.925 40.4437 15.7313C40.2281 16.5375 39.4125 17.0063 38.6062 16.7906C37.9219 16.6125 37.2844 16.4812 36.7219 16.4719C36.2625 16.4625 35.8031 16.575 35.5125 16.7438C35.3812 16.8188 35.3156 16.8938 35.2875 16.9313C35.2687 16.9594 35.25 17.0063 35.25 17.1094V17.1375ZM9.74999 17.1375V17.175C9.75936 17.1844 9.80624 17.25 9.95624 17.3344C10.3219 17.55 10.8562 17.7188 11.6719 17.9719L11.7281 17.9906C12.4219 18.1969 13.35 18.4781 14.0906 18.9469C14.9437 19.4813 15.7219 20.3719 15.7406 21.75C15.7594 23.1562 15.0281 24.1875 14.0719 24.7781C13.1812 25.3312 12.1125 25.5187 11.1937 25.4906C10.0406 25.4531 8.92499 25.0687 8.08124 24.7781C7.95936 24.7406 7.84686 24.7031 7.74374 24.6656C6.95624 24.4031 6.53436 23.55 6.79686 22.7719C7.05936 21.9937 7.91249 21.5625 8.69061 21.825C8.82186 21.8719 8.95311 21.9094 9.07499 21.9563C9.96561 22.2563 10.6219 22.4813 11.2969 22.5C11.7937 22.5187 12.2344 22.4063 12.4969 22.2375C12.6094 22.1625 12.6656 22.0969 12.6937 22.05C12.7125 22.0125 12.75 21.9375 12.75 21.7969V21.7781C12.75 21.7125 12.75 21.6469 12.4969 21.4875C12.1406 21.2625 11.5969 21.0844 10.8094 20.8406L10.6969 20.8031C10.0219 20.5969 9.13124 20.3344 8.41874 19.9031C7.57499 19.4062 6.75936 18.5344 6.74999 17.1562C6.74061 15.7312 7.55624 14.7469 8.48436 14.1937C9.36561 13.6781 10.4062 13.4906 11.2687 13.5C12.1594 13.5094 13.35 13.6969 14.1844 13.9125C14.9812 14.1281 15.4594 14.9438 15.2437 15.75C15.0281 16.5562 14.2125 17.025 13.4062 16.8094C12.7875 16.6406 11.8312 16.5 11.2219 16.4906C10.7625 16.4812 10.3031 16.5938 10.0125 16.7625C9.88124 16.8375 9.81561 16.9125 9.78749 16.95C9.76874 16.9781 9.74999 17.025 9.74999 17.1281V17.1375Z" fill="#78D6C6"/>
</svg>
