<svg xmlns="http://www.w3.org/2000/svg" viewBox="0 0 286.58824 493.5"><title>Fichier 2</title><g id="Calque_2" data-name="Calque 2"><g id="Calque_1-2" data-name="Calque 1"><path d="M143.29412,0A143.29412,143.29412,0,0,0,0,143.29412c0,1.77943.04381,3.54838.10812,5.312,0,52.8705,16.56843,81.77626,40.03894,115.12912s16.05882,42,19.7647,65.47059,18.52942,32.11765,18.52942,32.11765v9.88235l3.70588,3.70588v9.88236l6.17647,6.17647v7.41176l-3.64634,1.36738a3.93541,3.93541,0,0,0-1.17931,6.67282L87.08824,409.5v9.88235h-.09062a3.93541,3.93541,0,0,0-2.988,6.49654l1.84331,2.15052v4.94118l-3.08932,2.05955a3.9354,3.9354,0,0,0-.37816,6.26244l4.70278,4.031L85.85294,451.5H85.5098a3.36274,3.36274,0,0,0-3.36274,3.36275v2.81372l38.29412,28.41177v4.94117L124.14706,493.5h38.29412l3.70588-2.47059v-4.94117l38.29412-28.41177v-2.81372A3.36275,3.36275,0,0,0,201.07843,451.5h-.34314L199.5,445.32353l5.40261-4.63081a3.23715,3.23715,0,0,0-.31107-5.1513l-3.85625-2.57083v-4.94118l2.83131-3.30319a3.23715,3.23715,0,0,0-2.45783-5.34387H199.5V409.5l4.48756-3.84648a3.23715,3.23715,0,0,0-.97007-5.48887l-4.75278-1.7823v-7.41176l6.17647-6.17647v-9.88236l3.70588-3.70588v-9.88235s14.82353-8.64706,18.52941-32.11765-3.70588-32.11764,19.76471-65.47059,40.03894-62.25862,40.03894-115.12912c.06431-1.76367.10812-3.53262.10812-5.312A143.29412,143.29412,0,0,0,143.29412,0Z" fill="#303030"/><path d="M161.20588,111.79412s-2.47059-12.35294,11.11765-8.64706,19.76471,0,24.70588-8.64706,12.35294,0,11.11765,8.64706,8.64706,18.52941,19.7647,14.82353,11.11765,16.05882,2.47059,14.82353-12.35294,9.88235-9.88235,17.29412,2.47059,12.35294-2.47059,14.82352-8.64706-6.17647-16.05882-4.94117-11.11765,3.70588-13.58824,12.35294-13.58823,3.70588-12.35294-4.94118-4.94117-21-13.58823-18.52941-10.95494-8.94573-5.47747-14.97287S168.61765,130.32353,161.20588,111.79412Z" fill="none" stroke="#fff" stroke-linecap="round" stroke-linejoin="round" stroke-width="6"/><line x1="90.17647" y1="365.64706" x2="196.41176" y2="365.64706" fill="none" stroke="#fff" stroke-linecap="round" stroke-linejoin="round" stroke-width="6"/><path d="M160.58824,355.76471S158.11765,291.52941,168,266.82353s52.5-138.97059,52.5-138.97059-35.82353,1.2353-38.29412,12.35294,19.76471,18.52941,23.47059-3.70588-24.70588-19.76471-25.94118-9.88235-6.17647,11.11764-9.88235,13.58823c-9.47609,6.3174-76.58823,3.70588-77.82353,24.70588s45.70588,19.76471,40.76471-13.58823-40.76471-12.35294-42-2.47059-4.94118,11.11765-9.88236,12.35294-7.41176,0-8.64705,8.64706-4.94118,6.17647-7.41177,13.58824,4.94118,14.82353,12.35294,8.64706,21,0,18.52941,9.88235,9.88236,23.47059,17.29412,4.94117,19.76471-9.88235,19.76471-9.88235,9.88235,8.64706,14.82353,4.94118,2.47059-13.58824,2.47059-13.58824-4.94118-6.17647-1.2353-12.35294,14.82353-6.17647,14.82353-6.17647,7.41177-7.41176-3.70588-17.29412-4.94118-16.05882-1.2353-21,0-17.29411-13.58823-12.35294S125.38235,115.5,126.61765,108.08824,115.5,90.79412,110.55882,104.38235s-12.35294,11.11765-21,6.17647S73.5,108.08824,75.97059,122.91176s-2.47059,12.353-6.17647,16.05883-16.05883-3.70588-16.05883,8.64706,13.58824,11.11764,13.58824,11.11764,31.5,67.32353,47.55882,101.91177,9.88236,92.64706,9.88236,92.64706" fill="none" stroke="#fff" stroke-linecap="round" stroke-linejoin="round" stroke-width="6"/></g></g></svg>